<svg xmlns="http://www.w3.org/2000/svg" viewBox="0 0 195.89 223.89"><defs><style>.cls-1{fill:#010101;}.cls-2{fill:#020202;}</style></defs><g id="Layer_2" data-name="Layer 2"><g id="Layer_1-2" data-name="Layer 1"><path d="M187.24,74c-4.78-.57-5.46-3-5.43-7,.15-15.59.08-31.18.06-46.77C181.84,6.83,175,0,161.61,0H34.28C20.88,0,14.05,6.83,14,20.18c0,15.59-.09,31.18.05,46.77,0,4-.65,6.46-5.42,7A9.93,9.93,0,0,0,0,84c.05,4.76,3.45,8.86,8.82,9.78,4.11.71,5.33,2.71,5.28,6.75-.19,16.08-.09,32.17-.07,48.25,0,8,3,14.32,10.67,17.41,2.91,1.17,3.44,2.69,3.42,5.46-.12,12.76.09,25.54-.12,38.3-.11,6.34,1.64,11.27,7.77,13.95H160.12c6.13-2.68,7.88-7.61,7.77-13.95-.21-12.93-.08-25.87,0-38.8,0-1.67-.59-3.39,2-4.33,9-3.29,12.16-10.34,12.07-19.53-.16-15.59.07-31.18-.13-46.76,0-4,1.17-6,5.28-6.75,5.38-.92,8.77-5,8.82-9.78A9.93,9.93,0,0,0,187.24,74ZM12.4,87.9c-2.56-.07-5.68-.28-5.69-4,0-3.36,2.77-3.79,5.25-4.06,4-.42,1.06,2.91,2.3,4.1C13.23,85.2,15.6,88,12.4,87.9Zm148.88,123c0,5.7-.91,6.62-6.66,6.63q-28.34.06-56.67,0-28.1,0-56.18,0c-6.38,0-7.15-.79-7.16-7.13,0-12.93.09-25.86-.07-38.78,0-3,.61-4,3.78-4s4,.85,3.88,3.94c-.25,5.46-.18,10.94,0,16.4s2.59,7.86,8.06,7.87q47.73.09,95.45,0c5.64,0,8-2.53,8.07-8.36.1-5.47.22-10.95-.05-16.41-.15-3.21,1.41-3.34,3.88-3.38s3.83.29,3.79,3.4C161.19,184.36,161.31,197.62,161.28,210.88Zm-112.7-40.1c-.1-2.43.67-3.37,3.06-3a13.19,13.19,0,0,0,2,0c9.21,0,9.24,0,9.59,9,.09,2.27.2,4.76,3,4.85,3,.1,3.44-2.25,3.49-4.86.15-9,.24-8.68,9.43-9.11,4.71-.21,5.77,1.49,5.23,5.61a35.44,35.44,0,0,0,0,5.45,2.83,2.83,0,0,0,2.82,2.92,2.94,2.94,0,0,0,3.33-2.9c0-.5,0-1,0-1.49.38-3.06-1.5-7.75.84-8.84,3.29-1.53,7.76-.49,11.73-.61,2.27-.08,2.19,1.4,2.17,3,0,2.65,0,5.3.05,7.95a2.9,2.9,0,0,0,3.3,2.93,2.87,2.87,0,0,0,2.85-2.89,14.86,14.86,0,0,1,.07-1.49c.41-3-1.55-7.68.88-8.81,3.29-1.53,7.76-.5,11.71-.66,1.93-.08,2.12,1,2.09,2.49-.06,2.65,0,5.3,0,8a3.12,3.12,0,0,0,3.39,3.42c1.85,0,2.88-1.42,2.94-3.35a22.68,22.68,0,0,1,.07-2.48c.33-2.56-1.25-6.76.78-7.37,4-1.19,8.48-.63,12.76-.5,1.68,0,1,1.81,1,2.82.07,5-.19,9.95.11,14.9.19,3.23-1,3.77-3.93,3.74-15.23-.13-30.47-.06-45.7-.06-14.9,0-29.8-.1-44.7.08-3.3,0-4.72-.56-4.46-4.23A133,133,0,0,0,48.58,170.78Zm126.73-23.14c0,9.94-3.63,13.62-13.39,13.62q-63.91,0-127.84,0c-9.83,0-13.48-3.64-13.49-13.49q0-32.1,0-64.18,0-31.85,0-63.68c0-9.58,3.94-13.52,13.63-13.53q63.66,0,127.33,0c9.92,0,13.76,3.92,13.76,13.9Q175.33,84,175.31,147.64Zm6-59.13c1.79-3.37-1.93-7.25,2.41-8.56,2.06-.63,5.33.27,5.43,3.64C189.27,88.42,185.1,87.33,181.29,88.51Z"/><path d="M31.53,83.11c0-19.89.12-39.78-.1-59.66-.05-4.73,1.34-6.3,6.19-6.27,33.14.19,66.28.1,99.42.1,1,0,2,0,3,0A2.82,2.82,0,0,1,143,20.1,3,3,0,0,1,140,23.45a37.52,37.52,0,0,1-4,.06c-31.15,0-62.31.07-93.46-.1-3.92,0-4.92,1-4.9,4.89q.24,55.2,0,110.38c0,3.09.24,4.87,4,4.92,3.15.05,4.12,2.85,2.16,4.86-2.66,2.74-6.61,1.51-9.93,1-2.73-.39-2.49-3-2.48-5.23Q31.54,113.68,31.53,83.11Z"/><path d="M164,83.78c0,19.89-.12,39.78.09,59.67,0,4.69-1.3,6.48-6.18,6.46-33.15-.15-66.29-.07-99.43-.09a12.34,12.34,0,0,1-3.9-.44,2.88,2.88,0,0,1-2-3.09A2.71,2.71,0,0,1,55,143.62c1.65-.16,3.3-.24,5-.25,31,0,62-.08,93,.09,4,0,4.9-1.09,4.88-5q-.22-55.2,0-110.4c0-3,0-5.18-4-4.7-1.9.23-3-1.2-2.9-3.21s1.34-2.86,3.26-2.89l1,0c8.91-.45,8.91-.45,8.91,8.32Z"/><path class="cls-1" d="M143.09,64.94c-.05-7.06-2.15-9.23-9.16-9.27-7.3,0-14.59,0-21.89,0H63.8c-10,0-11.34,1.41-11.34,11.58,0,2.32,0,4.64,0,7,.06,6.64,2.35,9,8.91,9,12.11,0,24.21,0,36.31,0q17.91,0,35.81,0c7.52,0,9.58-2.11,9.6-9.79Q143.1,69.16,143.09,64.94ZM66.46,69.28a34.69,34.69,0,0,0,0,4c.32,2.7-.52,3.84-3.47,3.66-2.53-.15-4.62,0-4.23-3.55a36,36,0,0,0,0-7.41c-.31-3.09.85-3.9,3.88-3.89s4.33.61,3.82,3.78A21,21,0,0,0,66.46,69.28Zm10.43,7.61c-2.87,0-4.33-.58-3.93-3.77.23-1.78,0-3.61.06-5.41.15-2.58-1.45-5.81,3.82-5.72s3.16,3.56,3.6,5.95a8.11,8.11,0,0,1,0,1.48,32.19,32.19,0,0,0,0,3.93C80.85,76.21,79.65,76.89,76.89,76.89Zm17.54-5.34c0,2.63,1,5.48-3.82,5.41-4.61-.07-3.42-2.8-3.53-5.22,0-1,0-2,0-3.37,1.56-1.54-2.87-5.85,2.84-6.28,3.64-.27,5.19.69,4.57,4.51A35.48,35.48,0,0,0,94.43,71.55ZM105,76.9c-3,0-4.32-.63-3.92-3.82.23-1.79-.12-3.65.09-5.44.26-2.3-1.69-5.53,3.42-5.65,5.29-.13,3.71,3.11,3.89,5.73,0,.5,0,1,0,1.49a34.85,34.85,0,0,0,0,4C108.82,75.9,107.9,76.89,105,76.9Zm17.54-5.41c-.08,2.56,1.14,5.46-3.73,5.48s-3.55-2.93-3.7-5.44c0-.65,0-1.31,0-2a24.51,24.51,0,0,0,0-3.93c-.58-3.46,1.39-3.5,4-3.56s3.9.62,3.54,3.52C122.35,67.54,122.59,69.53,122.53,71.49Zm14.16-.41c-.15,2.64,1.4,5.89-3.87,5.91-5.46,0-3.32-3.5-3.72-5.95a9.13,9.13,0,0,1,0-1.48,28.89,28.89,0,0,0,0-4c-.38-2.84.76-3.65,3.54-3.55,2.6.1,4.62.08,4.15,3.59C136.52,67.43,136.8,69.27,136.69,71.08Z"/><path class="cls-2" d="M62.64,94.22a10.28,10.28,0,1,0,.42,20.55,10.28,10.28,0,0,0-.42-20.55ZM63.74,108c-3.33.12-4.66-1.33-4.67-3.53a3.34,3.34,0,0,1,3.78-3.59c2.12.08,3.44,1.19,3.53,3.32C66.48,106.55,65.26,107.9,63.74,108Z"/><path class="cls-2" d="M132.6,94.21a10.28,10.28,0,0,0,.2,20.56,10.28,10.28,0,1,0-.2-20.56Zm-.22,13.84a3.27,3.27,0,0,1-3.22-3.62,3.23,3.23,0,0,1,3.21-3.54c3.08.15,4.22,1.67,4.07,3.9S134.74,108.25,132.38,108.05Z"/><path class="cls-1" d="M98,94.21A10.28,10.28,0,1,0,108,104.91,10.55,10.55,0,0,0,98,94.21Zm-.2,13.91c-2.51-.24-3.66-1.55-3.54-3.91a3.17,3.17,0,0,1,3.49-3.29c2.34,0,3.68,1.25,3.66,3.62S100,108.06,97.75,108.12Z"/></g></g></svg>